<svg width="200" height="160" viewBox="0 0 200 160" fill="none" xmlns="http://www.w3.org/2000/svg">
<path d="M2.99999 61.0005C-1.97057 52.3912 0.979195 41.3826 9.58846 36.4121L68.4739 2.41455C77.0832 -2.55602 88.0918 0.393745 93.0623 9.00301L144.616 98.2969C149.587 106.906 146.637 117.915 138.028 122.885L79.1423 156.883C70.533 161.853 59.5244 158.904 54.5539 150.294L2.99999 61.0005Z" fill="#41C23E"/>
<path d="M143.255 149.143H181.235C191.176 149.143 199.235 141.084 199.235 131.143L199.235 28.0353C199.235 18.0942 191.176 10.0353 181.235 10.0353L123.139 10.0353C123.578 10.7095 124.002 11.3996 124.41 12.1051L166.46 84.9386C178.61 105.984 171.4 132.893 150.355 145.044L143.255 149.143Z" fill="#86FF84"/>
</svg>
