<svg width="161" height="119" viewBox="0 0 161 119" fill="none" xmlns="http://www.w3.org/2000/svg">
<path d="M139.666 68.853C139.704 69.1285 140.057 69.1493 140.084 68.8725V68.8725L143.522 33.5787C143.699 31.7537 143.788 30.8412 143.487 30.1361C143.223 29.5167 142.758 29.0042 142.167 28.6811C141.495 28.3133 140.578 28.3133 138.744 28.3133L21.9909 28.3133C20.15 28.3133 19.2295 28.3133 18.5555 28.683C17.9634 29.0078 17.4983 29.5227 17.2352 30.1446C16.9358 30.8526 17.0291 31.7684 17.2157 33.5999L20.8136 68.9123V68.9123C20.8425 69.1953 21.2032 69.1725 21.2418 68.8906C22.496 59.7249 30.3629 52.4908 40.0692 52.4908L120.844 52.4908C130.532 52.4908 138.395 59.7007 139.666 68.853Z" fill="#41C23E"/>
<path d="M124.994 77C126.528 77 127.295 77 127.903 76.7127C128.439 76.4596 128.888 76.0535 129.193 75.5457C129.54 74.969 129.616 74.2058 129.77 72.6794L129.799 72.3896C129.832 72.0584 129.847 71.73 129.844 71.4052C129.806 66.5334 125.837 62.4908 120.844 62.4908L40.0692 62.4908C34.7255 62.4908 30.5587 67.1197 31.1188 72.4341L31.1472 72.7031C31.3072 74.2218 31.3873 74.9812 31.7347 75.5546C32.0407 76.0597 32.489 76.4632 33.0234 76.7146C33.63 77 34.3936 77 35.9207 77H124.994Z" fill="#41C23E"/>
<path d="M140.653 18.3133C142.191 18.3133 142.961 18.3133 143.57 18.0249C144.107 17.7708 144.556 17.3632 144.861 16.8537C145.207 16.2752 145.281 15.5097 145.431 13.9787L145.831 9.87251C146.346 4.58218 142.188 1.46944e-05 136.873 1.40427e-05L23.7558 0C18.4245 0 14.2617 4.60842 14.8021 9.91228L15.2186 13.9999C15.3739 15.524 15.4516 16.286 15.7984 16.8617C16.104 17.3687 16.5527 17.774 17.0881 18.0266C17.6959 18.3133 18.4619 18.3133 19.9939 18.3133L140.653 18.3133Z" fill="#41C23E"/>
<path d="M144.639 105.616C149.2 105.616 153.04 102.204 153.577 97.6751L160.601 38.3719C161.235 33.0192 157.053 28.3133 151.663 28.3133L9.00132 28.3133C3.59008 28.3133 -0.597713 33.0542 0.0701183 38.4241L7.44547 97.7272C8.00591 102.234 11.8356 105.616 16.3767 105.616H19.2281C21.0748 105.616 21.9982 105.616 22.6733 105.245C23.2662 104.919 23.7315 104.402 23.9936 103.778C24.292 103.068 24.1952 102.15 24.0017 100.313L21.1739 73.4822C19.9915 62.263 28.788 52.4908 40.0692 52.4908L120.844 52.4908C132.087 52.4908 140.872 62.201 139.749 73.3884L137.044 100.337C136.86 102.166 136.768 103.081 137.068 103.788C137.332 104.409 137.797 104.923 138.388 105.247C139.062 105.616 139.981 105.616 141.82 105.616H144.639Z" fill="#81EB7F"/>
<path d="M122.121 105.616C123.655 105.616 124.422 105.616 125.031 105.329C125.567 105.076 126.015 104.67 126.321 104.162C126.667 103.585 126.744 102.822 126.897 101.296L129.799 72.3896C130.331 67.0903 126.17 62.4908 120.844 62.4908L40.0692 62.4908C34.7255 62.4908 30.5587 67.1197 31.1188 72.4341L34.1631 101.32C34.3232 102.838 34.4032 103.598 34.7506 104.171C35.0566 104.676 35.5049 105.08 36.0393 105.331C36.646 105.616 37.4095 105.616 38.9367 105.616L122.121 105.616Z" fill="#81EB7F"/>
<path d="M125.947 110.764C125.485 115.363 121.614 118.865 116.992 118.865L44.1136 118.865C39.5082 118.865 35.6459 115.388 35.1632 110.808L31.1188 72.4341C30.5587 67.1197 34.7255 62.4908 40.0692 62.4908L120.844 62.4908C126.17 62.4908 130.331 67.0903 129.799 72.3896L125.947 110.764Z" fill="#41C23E"/>
</svg>
