<svg width="186" height="104" viewBox="0 0 186 104" fill="none" xmlns="http://www.w3.org/2000/svg">
<path d="M164.083 61.1555C163.502 65.6419 159.681 69 155.157 69L30.2386 69C25.7365 69 21.927 65.6733 21.3206 61.2122L14.3882 10.2122C13.6538 4.80958 17.8538 -1.08418e-06 23.3061 -5.08219e-07L161.76 1.41175e-05C167.189 1.4691e-05 171.382 4.7711 170.685 10.1555L164.083 61.1555Z" fill="#86FF84"/>
<path d="M176.585 88.1802C175.993 92.6556 172.177 96 167.663 96L18.8083 96C14.3162 96 10.5119 92.6875 9.8939 88.2381L1.42192 27.2381C0.67043 21.8272 4.87353 17 10.3364 17L175.731 17C181.171 17 185.367 21.7878 184.653 27.1802L176.585 88.1802Z" fill="#41C23E"/>
<path d="M164.083 96.1555C163.502 100.642 159.681 104 155.157 104L30.2386 104C25.7365 104 21.927 100.673 21.3206 96.2122L14.3882 45.2122C13.6538 39.8096 17.8538 35 23.3061 35L161.76 35C167.189 35 171.382 39.7711 170.685 45.1555L164.083 96.1555Z" fill="#86FF84"/>
</svg>
