<svg width="192" height="131" viewBox="0 0 192 131" fill="none" xmlns="http://www.w3.org/2000/svg">
<g filter="url(#filter0_d_26_23)">
<path d="M164.412 59.1452C163.836 63.6362 160.013 67 155.485 67L35.8942 67C31.388 67 27.5764 63.6674 26.9748 59.2015L20.3742 10.2015C19.6469 4.80228 23.8457 1.63962e-06 29.2936 2.21513e-06L161.772 1.62096e-05C167.197 1.67826e-05 171.389 4.76417 170.698 10.1453L164.412 59.1452Z" fill="#41C23E"/>
</g>
<g filter="url(#filter1_d_26_23)">
<path d="M179.585 100.18C178.993 104.656 175.177 108 170.663 108L21.8083 108C17.3162 108 13.5119 104.688 12.8939 100.238L4.42192 39.2381C3.67043 33.8272 7.87353 29 13.3364 29L178.731 29C184.171 29 188.367 33.7878 187.653 39.1802L179.585 100.18Z" fill="#81EB7F"/>
</g>
<g filter="url(#filter2_d_26_23)">
<path d="M159.097 115.159C158.514 119.644 154.694 123 150.172 123L41.1735 123C36.6729 123 32.8641 119.675 32.256 115.216L26.393 72.2159C25.6561 66.8121 29.8566 62 35.3104 62L155.756 62C161.186 62 165.38 66.7735 164.681 72.159L159.097 115.159Z" fill="#41C23E"/>
</g>
<defs>
<filter id="filter0_d_26_23" x="16.2921" y="0" width="158.481" height="75" filterUnits="userSpaceOnUse" color-interpolation-filters="sRGB">
<feFlood flood-opacity="0" result="BackgroundImageFix"/>
<feColorMatrix in="SourceAlpha" type="matrix" values="0 0 0 0 0 0 0 0 0 0 0 0 0 0 0 0 0 0 127 0" result="hardAlpha"/>
<feOffset dy="4"/>
<feGaussianBlur stdDeviation="2"/>
<feComposite in2="hardAlpha" operator="out"/>
<feColorMatrix type="matrix" values="0 0 0 0 0 0 0 0 0 0 0 0 0 0 0 0 0 0 0.25 0"/>
<feBlend mode="normal" in2="BackgroundImageFix" result="effect1_dropShadow_26_23"/>
<feBlend mode="normal" in="SourceGraphic" in2="effect1_dropShadow_26_23" result="shape"/>
</filter>
<filter id="filter1_d_26_23" x="0.334778" y="29" width="191.398" height="87" filterUnits="userSpaceOnUse" color-interpolation-filters="sRGB">
<feFlood flood-opacity="0" result="BackgroundImageFix"/>
<feColorMatrix in="SourceAlpha" type="matrix" values="0 0 0 0 0 0 0 0 0 0 0 0 0 0 0 0 0 0 127 0" result="hardAlpha"/>
<feOffset dy="4"/>
<feGaussianBlur stdDeviation="2"/>
<feComposite in2="hardAlpha" operator="out"/>
<feColorMatrix type="matrix" values="0 0 0 0 0 0 0 0 0 0 0 0 0 0 0 0 0 0 0.25 0"/>
<feBlend mode="normal" in2="BackgroundImageFix" result="effect1_dropShadow_26_23"/>
<feBlend mode="normal" in="SourceGraphic" in2="effect1_dropShadow_26_23" result="shape"/>
</filter>
<filter id="filter2_d_26_23" x="22.3089" y="62" width="146.448" height="69" filterUnits="userSpaceOnUse" color-interpolation-filters="sRGB">
<feFlood flood-opacity="0" result="BackgroundImageFix"/>
<feColorMatrix in="SourceAlpha" type="matrix" values="0 0 0 0 0 0 0 0 0 0 0 0 0 0 0 0 0 0 127 0" result="hardAlpha"/>
<feOffset dy="4"/>
<feGaussianBlur stdDeviation="2"/>
<feComposite in2="hardAlpha" operator="out"/>
<feColorMatrix type="matrix" values="0 0 0 0 0 0 0 0 0 0 0 0 0 0 0 0 0 0 0.25 0"/>
<feBlend mode="normal" in2="BackgroundImageFix" result="effect1_dropShadow_26_23"/>
<feBlend mode="normal" in="SourceGraphic" in2="effect1_dropShadow_26_23" result="shape"/>
</filter>
</defs>
</svg>
