<svg width="350" height="131" viewBox="0 0 350 131" fill="none" xmlns="http://www.w3.org/2000/svg">
<g filter="url(#filter0_d_26_22)">
<path d="M164.412 59.1452C163.836 63.6362 160.013 67 155.485 67L35.8942 67C31.388 67 27.5764 63.6674 26.9748 59.2015L20.3742 10.2015C19.6469 4.80228 23.8457 1.63962e-06 29.2936 2.21513e-06L161.772 1.62096e-05C167.197 1.67826e-05 171.389 4.76417 170.698 10.1453L164.412 59.1452Z" fill="#41C23E"/>
</g>
<g filter="url(#filter1_d_26_22)">
<path d="M179.585 100.18C178.993 104.656 175.177 108 170.663 108L21.8083 108C17.3162 108 13.5119 104.688 12.8939 100.238L4.42192 39.2381C3.67043 33.8272 7.87353 29 13.3364 29L178.731 29C184.171 29 188.367 33.7878 187.653 39.1802L179.585 100.18Z" fill="#81EB7F"/>
</g>
<g filter="url(#filter2_d_26_22)">
<path d="M159.097 115.159C158.514 119.644 154.694 123 150.172 123L41.1735 123C36.6729 123 32.8641 119.675 32.256 115.216L26.393 72.2159C25.6561 66.8121 29.8566 62 35.3104 62L155.756 62C161.186 62 165.38 66.7735 164.681 72.159L159.097 115.159Z" fill="#41C23E"/>
</g>
<path d="M213.456 83V38.52H240.784L239.568 46.904H225.296V57.592H237.84V65.976H225.296V83H213.456ZM253.556 84.152C250.356 84.152 247.881 83.256 246.132 81.464C244.383 79.672 243.508 77.0907 243.508 73.72V35.448L254.9 34.296V73.336C254.9 74.5733 255.455 75.192 256.564 75.192C257.033 75.192 257.524 75.1067 258.036 74.936L260.148 83C258.399 83.768 256.201 84.152 253.556 84.152ZM274.345 48.888V83H262.953V48.888H274.345ZM268.649 30.52C270.569 30.52 272.126 31.1173 273.321 32.312C274.558 33.5067 275.177 35 275.177 36.792C275.177 38.584 274.558 40.0773 273.321 41.272C272.126 42.4667 270.569 43.064 268.649 43.064C266.729 43.064 265.15 42.4667 263.913 41.272C262.718 40.0773 262.121 38.584 262.121 36.792C262.121 35 262.718 33.5067 263.913 32.312C265.15 31.1173 266.729 30.52 268.649 30.52ZM301.304 47.736C305.57 47.736 308.77 49.336 310.904 52.536C313.037 55.6933 314.104 60.1307 314.104 65.848C314.104 69.3467 313.549 72.4827 312.44 75.256C311.33 78.0293 309.73 80.2053 307.64 81.784C305.592 83.3627 303.224 84.152 300.536 84.152C297.165 84.152 294.456 83 292.408 80.696V96.184L281.016 97.336V48.888H291.128L291.64 52.472C292.962 50.808 294.456 49.6133 296.12 48.888C297.826 48.12 299.554 47.736 301.304 47.736ZM296.888 75.96C300.514 75.96 302.328 72.632 302.328 65.976C302.328 62.0933 301.922 59.4693 301.112 58.104C300.344 56.696 299.17 55.992 297.592 55.992C295.544 55.992 293.816 57.1867 292.408 59.576V73.272C293.048 74.2107 293.709 74.8933 294.392 75.32C295.117 75.7467 295.949 75.96 296.888 75.96ZM339.055 83C337.647 87.5653 335.279 91.0427 331.951 93.432C328.666 95.864 324.314 97.1867 318.895 97.4L317.679 89.528C320.922 89.1867 323.332 88.5253 324.911 87.544C326.49 86.6053 327.727 85.0907 328.623 83H324.719L314.735 48.888H326.831L332.015 75.896L337.967 48.888H349.679L339.055 83Z" fill="#DFDFDF"/>
<defs>
<filter id="filter0_d_26_22" x="16.2921" y="3.8147e-06" width="158.481" height="75" filterUnits="userSpaceOnUse" color-interpolation-filters="sRGB">
<feFlood flood-opacity="0" result="BackgroundImageFix"/>
<feColorMatrix in="SourceAlpha" type="matrix" values="0 0 0 0 0 0 0 0 0 0 0 0 0 0 0 0 0 0 127 0" result="hardAlpha"/>
<feOffset dy="4"/>
<feGaussianBlur stdDeviation="2"/>
<feComposite in2="hardAlpha" operator="out"/>
<feColorMatrix type="matrix" values="0 0 0 0 0 0 0 0 0 0 0 0 0 0 0 0 0 0 0.25 0"/>
<feBlend mode="normal" in2="BackgroundImageFix" result="effect1_dropShadow_26_22"/>
<feBlend mode="normal" in="SourceGraphic" in2="effect1_dropShadow_26_22" result="shape"/>
</filter>
<filter id="filter1_d_26_22" x="0.334778" y="29" width="191.398" height="87" filterUnits="userSpaceOnUse" color-interpolation-filters="sRGB">
<feFlood flood-opacity="0" result="BackgroundImageFix"/>
<feColorMatrix in="SourceAlpha" type="matrix" values="0 0 0 0 0 0 0 0 0 0 0 0 0 0 0 0 0 0 127 0" result="hardAlpha"/>
<feOffset dy="4"/>
<feGaussianBlur stdDeviation="2"/>
<feComposite in2="hardAlpha" operator="out"/>
<feColorMatrix type="matrix" values="0 0 0 0 0 0 0 0 0 0 0 0 0 0 0 0 0 0 0.25 0"/>
<feBlend mode="normal" in2="BackgroundImageFix" result="effect1_dropShadow_26_22"/>
<feBlend mode="normal" in="SourceGraphic" in2="effect1_dropShadow_26_22" result="shape"/>
</filter>
<filter id="filter2_d_26_22" x="22.3089" y="62" width="146.448" height="69" filterUnits="userSpaceOnUse" color-interpolation-filters="sRGB">
<feFlood flood-opacity="0" result="BackgroundImageFix"/>
<feColorMatrix in="SourceAlpha" type="matrix" values="0 0 0 0 0 0 0 0 0 0 0 0 0 0 0 0 0 0 127 0" result="hardAlpha"/>
<feOffset dy="4"/>
<feGaussianBlur stdDeviation="2"/>
<feComposite in2="hardAlpha" operator="out"/>
<feColorMatrix type="matrix" values="0 0 0 0 0 0 0 0 0 0 0 0 0 0 0 0 0 0 0.25 0"/>
<feBlend mode="normal" in2="BackgroundImageFix" result="effect1_dropShadow_26_22"/>
<feBlend mode="normal" in="SourceGraphic" in2="effect1_dropShadow_26_22" result="shape"/>
</filter>
</defs>
</svg>
