<svg width="352" height="104" viewBox="0 0 352 104" fill="none" xmlns="http://www.w3.org/2000/svg">
<path d="M164.083 61.1555C163.502 65.6419 159.681 69 155.157 69L30.2386 69C25.7365 69 21.927 65.6733 21.3206 61.2122L14.3882 10.2122C13.6538 4.80958 17.8538 -1.02458e-06 23.3061 -4.48614e-07L161.76 1.41771e-05C167.189 1.47506e-05 171.382 4.7711 170.685 10.1555L164.083 61.1555Z" fill="#86FF84"/>
<path d="M176.585 88.1802C175.993 92.6556 172.177 96 167.663 96L18.8083 96C14.3162 96 10.5119 92.6875 9.89391 88.2381L1.42193 27.2381C0.670431 21.8272 4.87353 17 10.3364 17L175.731 17C181.171 17 185.367 21.7878 184.653 27.1802L176.585 88.1802Z" fill="#41C23E"/>
<path d="M164.083 96.1555C163.502 100.642 159.681 104 155.157 104L30.2386 104C25.7365 104 21.927 100.673 21.3206 96.2122L14.3882 45.2122C13.6538 39.8096 17.8538 35 23.3061 35L161.76 35C167.189 35 171.382 39.7711 170.685 45.1555L164.083 96.1555Z" fill="#86FF84"/>
<path d="M215.456 74V29.52H242.784L241.568 37.904H227.296V48.592H239.84V56.976H227.296V74H215.456ZM255.556 75.152C252.356 75.152 249.881 74.256 248.132 72.464C246.383 70.672 245.508 68.0907 245.508 64.72V26.448L256.9 25.296V64.336C256.9 65.5733 257.455 66.192 258.564 66.192C259.033 66.192 259.524 66.1067 260.036 65.936L262.148 74C260.399 74.768 258.201 75.152 255.556 75.152ZM276.345 39.888V74H264.953V39.888H276.345ZM270.649 21.52C272.569 21.52 274.126 22.1173 275.321 23.312C276.558 24.5067 277.177 26 277.177 27.792C277.177 29.584 276.558 31.0773 275.321 32.272C274.126 33.4667 272.569 34.064 270.649 34.064C268.729 34.064 267.15 33.4667 265.913 32.272C264.718 31.0773 264.121 29.584 264.121 27.792C264.121 26 264.718 24.5067 265.913 23.312C267.15 22.1173 268.729 21.52 270.649 21.52ZM303.304 38.736C307.57 38.736 310.77 40.336 312.904 43.536C315.037 46.6933 316.104 51.1307 316.104 56.848C316.104 60.3467 315.549 63.4827 314.44 66.256C313.33 69.0293 311.73 71.2053 309.64 72.784C307.592 74.3627 305.224 75.152 302.536 75.152C299.165 75.152 296.456 74 294.408 71.696V87.184L283.016 88.336V39.888H293.128L293.64 43.472C294.962 41.808 296.456 40.6133 298.12 39.888C299.826 39.12 301.554 38.736 303.304 38.736ZM298.888 66.96C302.514 66.96 304.328 63.632 304.328 56.976C304.328 53.0933 303.922 50.4693 303.112 49.104C302.344 47.696 301.17 46.992 299.592 46.992C297.544 46.992 295.816 48.1867 294.408 50.576V64.272C295.048 65.2107 295.709 65.8933 296.392 66.32C297.117 66.7467 297.949 66.96 298.888 66.96ZM341.055 74C339.647 78.5653 337.279 82.0427 333.951 84.432C330.666 86.864 326.314 88.1867 320.895 88.4L319.679 80.528C322.922 80.1867 325.332 79.5253 326.911 78.544C328.49 77.6053 329.727 76.0907 330.623 74H326.719L316.735 39.888H328.831L334.015 66.896L339.967 39.888H351.679L341.055 74Z" fill="#DFDFDF"/>
</svg>
