<svg width="317" height="119" viewBox="0 0 317 119" fill="none" xmlns="http://www.w3.org/2000/svg">
<path d="M226.367 77.1033C226.494 77.585 226.557 77.8259 226.507 78.0578C226.467 78.2488 226.348 78.4563 226.204 78.588C226.029 78.748 225.812 78.8091 225.379 78.9314C223.724 79.3985 221.848 79.632 219.752 79.632C216.637 79.632 214.227 78.7573 212.52 77.008C210.856 75.216 210.024 72.6773 210.024 69.392V39.6652C210.024 39.2192 210.024 38.9961 209.939 38.8035C209.867 38.6407 209.737 38.4835 209.591 38.3827C209.417 38.2634 209.213 38.2246 208.804 38.1471C207.725 37.9424 206.702 37.84 205.736 37.84C204.157 37.84 203.069 38.16 202.472 38.8C201.875 39.44 201.576 40.5707 201.576 42.192V42.768C201.576 43.3281 201.576 43.6081 201.685 43.822C201.781 44.0102 201.934 44.1631 202.122 44.259C202.336 44.368 202.616 44.368 203.176 44.368H205.596C206.239 44.368 206.561 44.368 206.791 44.499C206.993 44.6139 207.148 44.7956 207.231 45.0128C207.325 45.2603 207.276 45.5783 207.176 46.2142L206.459 50.8222C206.384 51.3027 206.347 51.543 206.228 51.7235C206.124 51.8826 205.977 52.0087 205.804 52.0871C205.607 52.176 205.364 52.176 204.878 52.176H203.176C202.616 52.176 202.336 52.176 202.122 52.285C201.934 52.3809 201.781 52.5338 201.685 52.722C201.576 52.9359 201.576 53.2159 201.576 53.776V76.88C201.576 77.4401 201.576 77.7201 201.467 77.934C201.371 78.1222 201.218 78.2751 201.03 78.371C200.816 78.48 200.536 78.48 199.976 78.48H191.784C191.224 78.48 190.944 78.48 190.73 78.371C190.542 78.2751 190.389 78.1222 190.293 77.934C190.184 77.7201 190.184 77.4401 190.184 76.88V53.776C190.184 53.216 190.184 52.9359 190.075 52.722C189.979 52.5338 189.826 52.3809 189.638 52.285C189.424 52.176 189.144 52.176 188.584 52.176H186.6C186.04 52.176 185.76 52.176 185.546 52.067C185.358 51.9711 185.205 51.8182 185.109 51.63C185 51.4161 185 51.1361 185 50.576V45.968C185 45.4079 185 45.1279 185.109 44.914C185.205 44.7258 185.358 44.5729 185.546 44.477C185.76 44.368 186.04 44.368 186.6 44.368H188.584C189.144 44.368 189.424 44.368 189.638 44.259C189.826 44.1631 189.979 44.0102 190.075 43.822C190.184 43.6081 190.184 43.3281 190.184 42.768V41.936C190.184 38.352 191.357 35.4293 193.704 33.168C196.093 30.9067 199.528 29.776 204.008 29.776C206.262 29.776 208.634 30.1302 211.124 30.8387C211.244 30.8729 211.304 30.89 211.361 30.8993C211.413 30.9078 211.462 30.9119 211.515 30.9123C211.573 30.9127 211.632 30.9062 211.751 30.8933L219.643 30.0332C220.257 29.9663 220.564 29.9329 220.801 30.032C221.01 30.119 221.183 30.2742 221.292 30.4721C221.416 30.6975 221.416 31.0063 221.416 31.6238V68.112C221.416 69.8187 221.949 70.672 223.016 70.672V70.672C223.744 70.672 224.108 70.672 224.289 70.7462C224.493 70.8293 224.579 70.896 224.711 71.0717C224.829 71.2287 224.895 71.482 225.028 71.9884L226.367 77.1033Z" fill="#DFDFDF"/>
<path d="M239.245 44.368C239.805 44.368 240.085 44.368 240.299 44.477C240.487 44.5729 240.64 44.7258 240.736 44.914C240.845 45.1279 240.845 45.4079 240.845 45.968V76.88C240.845 77.4401 240.845 77.7201 240.736 77.934C240.64 78.1222 240.487 78.2751 240.299 78.371C240.085 78.48 239.805 78.48 239.245 78.48H231.053C230.493 78.48 230.213 78.48 229.999 78.371C229.811 78.2751 229.658 78.1222 229.562 77.934C229.453 77.7201 229.453 77.4401 229.453 76.88V45.968C229.453 45.4079 229.453 45.1279 229.562 44.914C229.658 44.7258 229.811 44.5729 229.999 44.477C230.213 44.368 230.493 44.368 231.053 44.368H239.245ZM235.149 26C237.069 26 238.626 26.5973 239.821 27.792C241.058 28.9867 241.677 30.48 241.677 32.272C241.677 34.064 241.058 35.5573 239.821 36.752C238.626 37.9467 237.069 38.544 235.149 38.544C233.229 38.544 231.65 37.9467 230.413 36.752C229.218 35.5573 228.621 34.064 228.621 32.272C228.621 30.48 229.218 28.9867 230.413 27.792C231.65 26.5973 233.229 26 235.149 26Z" fill="#DFDFDF"/>
<path d="M267.803 43.216C272.07 43.216 275.27 44.816 277.404 48.016C279.537 51.1733 280.604 55.6107 280.604 61.328C280.604 64.8267 280.049 67.9627 278.939 70.736C277.83 73.5093 276.23 75.6853 274.14 77.264C272.092 78.8427 269.723 79.632 267.035 79.632C265.259 79.632 263.666 79.312 262.257 78.672C260.779 78.0006 260.04 77.6649 259.736 77.718C259.412 77.7745 259.267 77.868 259.082 78.1392C258.908 78.3943 258.908 79.0576 258.908 80.3843V90.2176C258.908 90.7287 258.908 90.9842 258.812 91.1869C258.728 91.3654 258.592 91.515 258.423 91.6168C258.231 91.7324 257.977 91.7581 257.468 91.8095L249.276 92.6379C248.666 92.6996 248.361 92.7305 248.125 92.6306C247.918 92.5428 247.747 92.3878 247.639 92.1905C247.515 91.9659 247.515 91.6593 247.515 91.046V45.968C247.515 45.4079 247.515 45.1279 247.624 44.914C247.72 44.7258 247.873 44.5729 248.062 44.477C248.275 44.368 248.555 44.368 249.115 44.368H256.643C256.753 44.368 256.809 44.368 256.857 44.3727C257.28 44.4138 257.631 44.7183 257.732 45.1316C257.743 45.1787 257.751 45.2334 257.767 45.3428V45.3428C257.821 45.7235 257.848 45.9139 257.869 45.9834C258.076 46.6875 258.74 46.9382 259.361 46.5468C259.423 46.5082 259.601 46.3555 259.959 46.0502C260.791 45.3392 261.678 44.7785 262.619 44.368C264.326 43.6 266.054 43.216 267.803 43.216ZM263.387 71.44C267.014 71.44 268.827 68.112 268.827 61.456C268.827 57.5733 268.422 54.9493 267.612 53.584C266.844 52.176 265.67 51.472 264.091 51.472C262.153 51.472 260.501 52.5425 259.136 54.6835C259.058 54.8062 259.018 54.8675 258.985 54.9462C258.958 55.0117 258.934 55.0937 258.922 55.1637C258.908 55.2478 258.908 55.3293 258.908 55.4924V68.2585C258.908 68.4425 258.908 68.5345 258.926 68.6295C258.941 68.7079 258.972 68.8009 259.007 68.8729C259.049 68.96 259.098 69.0246 259.194 69.1537C259.745 69.888 260.31 70.4368 260.892 70.8C261.617 71.2267 262.449 71.44 263.387 71.44Z" fill="#DFDFDF"/>
<path d="M305.555 78.48C304.147 83.0453 301.779 86.5227 298.451 88.912C295.459 91.127 291.582 92.4218 286.82 92.7964C286.338 92.8343 286.097 92.8533 285.884 92.7707C285.702 92.6999 285.533 92.5661 285.422 92.4048C285.293 92.2167 285.254 91.9676 285.177 91.4693L284.435 86.6677C284.346 86.0899 284.301 85.801 284.376 85.573C284.445 85.3661 284.565 85.2019 284.741 85.0745C284.936 84.9341 285.239 84.8871 285.845 84.7933C288.26 84.4189 290.116 83.8292 291.411 83.024C292.393 82.4403 293.242 81.634 293.96 80.6049C294.346 80.0509 294.54 79.7739 294.524 79.4351C294.512 79.1684 294.345 78.8487 294.134 78.6863C293.864 78.48 293.475 78.48 292.697 78.48H292.418C291.988 78.48 291.773 78.48 291.592 78.4065C291.432 78.3416 291.292 78.2365 291.185 78.1014C291.063 77.9484 291.003 77.7421 290.882 77.3294L281.835 46.4174C281.631 45.7222 281.53 45.3747 281.606 45.0994C281.674 44.8583 281.829 44.6512 282.041 44.519C282.284 44.368 282.646 44.368 283.37 44.368H292.009C292.48 44.368 292.715 44.368 292.907 44.4526C293.077 44.5272 293.223 44.6475 293.328 44.8001C293.447 44.9731 293.492 45.2042 293.58 45.6664L297.052 63.7527C297.472 65.9433 297.682 67.0386 298.051 67.2699C298.368 67.4688 298.769 67.4742 299.091 67.2841C299.466 67.0629 299.706 65.9738 300.186 63.7955L304.19 45.6237C304.289 45.1757 304.338 44.9517 304.459 44.7845C304.565 44.637 304.709 44.5211 304.876 44.4494C305.065 44.368 305.294 44.368 305.753 44.368H314.005C314.741 44.368 315.109 44.368 315.353 44.5217C315.567 44.6563 315.722 44.8669 315.787 45.111C315.861 45.3899 315.751 45.7412 315.533 46.4438L305.555 78.48Z" fill="#DFDFDF"/>
<path d="M139.853 68.853C139.891 69.1285 140.244 69.1493 140.271 68.8725V68.8725L143.709 33.5787C143.887 31.7537 143.975 30.8412 143.675 30.1361C143.41 29.5167 142.945 29.0042 142.355 28.6811C141.682 28.3133 140.765 28.3133 138.931 28.3133L22.1783 28.3133C20.3373 28.3133 19.4168 28.3133 18.7428 28.683C18.1508 29.0078 17.6856 29.5227 17.4225 30.1446C17.1231 30.8526 17.2164 31.7684 17.403 33.5999L21.0009 68.9123V68.9123C21.0298 69.1953 21.3905 69.1725 21.4291 68.8906C22.6833 59.7249 30.5502 52.4908 40.2566 52.4908L121.031 52.4908C130.72 52.4908 138.582 59.7007 139.853 68.853Z" fill="#41C23E"/>
<path d="M125.181 77C126.715 77 127.482 77 128.09 76.7127C128.626 76.4596 129.075 76.0535 129.38 75.5457C129.727 74.969 129.804 74.2058 129.957 72.6794L129.986 72.3896C130.019 72.0584 130.034 71.73 130.032 71.4052C129.993 66.5334 126.024 62.4908 121.031 62.4908L40.2566 62.4908C34.9128 62.4908 30.746 67.1197 31.3061 72.4341L31.3345 72.7031C31.4945 74.2218 31.5746 74.9812 31.922 75.5546C32.228 76.0597 32.6763 76.4632 33.2107 76.7146C33.8173 77 34.5809 77 36.108 77H125.181Z" fill="#41C23E"/>
<path d="M140.841 18.3133C142.379 18.3133 143.148 18.3133 143.757 18.0249C144.294 17.7708 144.743 17.3632 145.048 16.8537C145.394 16.2752 145.469 15.5097 145.618 13.9787L146.018 9.87251C146.533 4.58218 142.376 1.46944e-05 137.06 1.40427e-05L23.9431 0C18.6118 0 14.449 4.60842 14.9895 9.91228L15.4059 13.9999C15.5612 15.524 15.6389 16.286 15.9858 16.8617C16.2913 17.3687 16.74 17.774 17.2754 18.0266C17.8832 18.3133 18.6492 18.3133 20.1812 18.3133L140.841 18.3133Z" fill="#41C23E"/>
<path d="M144.826 105.616C149.388 105.616 153.227 102.204 153.764 97.6751L160.788 38.3719C161.422 33.0192 157.241 28.3133 151.851 28.3133L9.18863 28.3133C3.77739 28.3133 -0.410396 33.0542 0.257435 38.4241L7.63278 97.7272C8.19322 102.234 12.0229 105.616 16.564 105.616H19.4154C21.2622 105.616 22.1855 105.616 22.8606 105.245C23.4535 104.919 23.9188 104.402 24.1809 103.778C24.4793 103.068 24.3825 102.15 24.189 100.313L21.3612 73.4822C20.1788 62.263 28.9753 52.4908 40.2565 52.4908L121.031 52.4908C132.275 52.4908 141.059 62.201 139.936 73.3884L137.231 100.337C137.047 102.166 136.956 103.081 137.255 103.788C137.519 104.409 137.984 104.923 138.576 105.247C139.249 105.616 140.168 105.616 142.007 105.616H144.826Z" fill="#81EB7F"/>
<path d="M122.308 105.616C123.843 105.616 124.61 105.616 125.218 105.329C125.754 105.076 126.203 104.67 126.508 104.162C126.855 103.585 126.931 102.822 127.084 101.296L129.986 72.3896C130.518 67.0903 126.357 62.4908 121.031 62.4908L40.2565 62.4908C34.9128 62.4908 30.746 67.1197 31.3061 72.4341L34.3504 101.32C34.5105 102.838 34.5905 103.598 34.9379 104.171C35.244 104.676 35.6922 105.08 36.2266 105.331C36.8333 105.616 37.5968 105.616 39.124 105.616L122.308 105.616Z" fill="#81EB7F"/>
<path d="M126.134 110.764C125.672 115.363 121.802 118.865 117.179 118.865L44.3009 118.865C39.6955 118.865 35.8332 115.388 35.3505 110.808L31.3061 72.4341C30.746 67.1197 34.9128 62.4908 40.2565 62.4908L121.031 62.4908C126.357 62.4908 130.518 67.0903 129.986 72.3896L126.134 110.764Z" fill="#41C23E"/>
</svg>
